{"title":"Bajirao Mastani (2015) 4K UHD HEVC x265 DTS-HDMA 7.1 MSubs -DDR","uid":14803405,"size":25940190695,"categoryP":"video","categoryS":"hd___movies","magnet":"?xt=urn:btih:1795210571507c956c54108f04cbd1b3cf473c18&amp;dn=Bajirao+Mastani+%282015%29+4K+UHD+HEVC+x265+DTS-HDMA+7.1+MSubs+-DDR+&amp;tr=udp%3A%2F%2Ftracker.leechers-paradise.org%3A6969&amp;tr=udp%3A%2F%2Fzer0day.ch%3A1337&amp;tr=udp%3A%2F%2Fopen.demonii.com%3A1337&amp;tr=udp%3A%2F%2Ftracker.coppersurfer.tk%3A6969&amp;tr=udp%3A%2F%2Fexodus.desync.com%3A6969","seeders":6,"leechers":15,"uploader":"SaM","files":3,"time":1465148877,"description":"- BollywooD MoviE -\r\n**- Bajirao Mastani -**\r\n- (a Sanjay Leela Bhansali Film) -\r\n- (2015) -\r\n** 4K UHD HQ 2160p Blu-Ray / HEVC x265 10 Bits / DTS-HDMA 7.1 **\r\nEnglish &amp; Arabic subtitles\r\n \nhttp://extraimago.com/image/aezC \nhttp://extraimago.com/image/aezB \nhttp://extraimago.com/image/aez4 \nhttp://extraimago.com/image/aeze \nhttp://extraimago.com/image/aezZ \nhttp://extraimago.com/image/aezK \nhttp://extraimago.com/image/aezJ \nhttp://extraimago.com/image/aez0 \nhttp://extraimago.com/image/aezz \nhttp://extraimago.com/image/aezU \nhttp://extraimago.com/image/aezM \nhttp://extraimago.com/image/aez9 \nhttp://extraimago.com/image/aez3 \nhttp://extraimago.com/image/aezb\r\n\r\n[ Specs ]\r\nGeneral\r\nFormat : Matroska\r\nFile size : 24.0 GiB\r\nDuration : 2h 38mn\r\nOverall bit rate : 21.7 Mbps\r\nEncoded date : UTC 2016-06-04 21:24:28\r\n\r\nVideo\r\nFormat : HEVC\r\nFormat/Info : High Efficiency Video Coding\r\nFormat profile : Main   @Main\r\nCodec ID : V_MPEGH/ISO/HEVC\r\nDuration : 2h 38mn\r\nBit rate : 17.4 Mbps\r\nWidth : 3 840 pixels\r\nHeight : 1 600 pixels\r\nDisplay aspect ratio : 2.40:1\r\nFrame rate mode : Constant\r\nFrame rate : 24.000 fps\r\ncolor space : YUV\r\nChroma subsampling : 4:2:0\r\nBit depth : 10 bits\r\nBits/(Pixel*Frame) : 0.118\r\nStream size : 19.2 GiB (80%)\r\nDefault : Yes\r\nForced : No\r\n\r\nAudio\r\nID : 2\r\nFormat : DTS\r\nFormat/Info : Digital Theater Systems\r\nFormat profile : MA / Core\r\nMode : 16\r\nFormat settings, Endianness : Big\r\nCodec ID : A_DTS\r\nDuration : 2h 38mn\r\nBit rate mode : Variable / Constant\r\nBit rate : 4 296 Kbps / 1 509 Kbps\r\nChannel(s) : 8 channels / 6 channels\r\nChannel positions : Front: L C R, Side: L R, Back: L R, LFE / Front: L C R, Side: L R, LFE\r\nSampling rate : 48.0 KHz\r\nFrame rate : 93.750 fps (512 spf)\r\nBit depth : 24 bits\r\nCompression mode : Lossless / Lossy\r\nStream size : 4.74 GiB (20%)\r\nLanguage : Hindi\r\nDefault : Yes\r\nForced : No\r\n\r\nChapters: YES (named)\r\n\r\n\r\nA DDR Exclusive Release...!","torrent":{"xt":"urn:btih:1795210571507c956c54108f04cbd1b3cf473c18","amp;dn":"Bajirao+Mastani+%282015%29+4K+UHD+HEVC+x265+DTS-HDMA+7.1+MSubs+-DDR+","amp;tr":["udp%3A%2F%2Ftracker.leechers-paradise.org%3A6969","udp%3A%2F%2Fzer0day.ch%3A1337","udp%3A%2F%2Fopen.demonii.com%3A1337","udp%3A%2F%2Ftracker.coppersurfer.tk%3A6969","udp%3A%2F%2Fexodus.desync.com%3A6969"],"infoHash":"1795210571507c956c54108f04cbd1b3cf473c18","infoHashBuffer":{"type":"Buffer","data":[23,149,33,5,113,80,124,149,108,84,16,143,4,203,209,179,207,71,60,24]},"announce":[],"urlList":[]}}